<?xml version="1.0" standalone="no"?>
<!DOCTYPE svg PUBLIC "-//W3C//DTD SVG 20010904//EN"
 "http://www.w3.org/TR/2001/REC-SVG-20010904/DTD/svg10.dtd">
<svg version="1.0" xmlns="http://www.w3.org/2000/svg"
 width="384.000000pt" height="384.000000pt" viewBox="0 0 384.000000 384.000000"
 preserveAspectRatio="xMidYMid meet">
<metadata>
Created by potrace 1.16, written by Peter Selinger 2001-2019
</metadata>
<g transform="translate(0.000000,384.000000) scale(0.100000,-0.100000)"
fill="#000000" stroke="none">
<path d="M1765 3820 c-92 -7 -170 -21 -220 -40 -11 -5 -48 -16 -82 -27 -35
-10 -63 -21 -63 -25 0 -5 -6 -8 -12 -8 -16 0 -122 -53 -126 -62 -2 -5 -8 -8
-14 -8 -8 0 -72 -43 -88 -60 -3 -3 -21 -17 -40 -31 -89 -67 -250 -252 -250
-288 0 -6 -4 -11 -8 -11 -4 0 -16 -22 -27 -50 -11 -27 -23 -50 -27 -50 -4 0
-8 -8 -8 -18 0 -10 -7 -27 -15 -38 -8 -10 -15 -29 -15 -41 0 -13 -4 -23 -10
-23 -5 0 -10 -6 -10 -12 0 -11 -38 -119 -60 -173 -5 -11 -16 -45 -26 -75 -9
-30 -20 -64 -24 -75 -26 -68 -40 -113 -40 -128 0 -9 -4 -17 -9 -17 -5 0 -11
-107 -13 -237 -5 -214 -7 -244 -28 -303 -12 -36 -27 -73 -32 -83 -5 -11 -12
-49 -15 -87 -8 -93 16 -141 93 -190 64 -40 154 -126 154 -146 0 -8 5 -14 10
-14 6 0 10 -7 10 -15 0 -26 -25 -17 -68 25 -70 69 -101 46 -88 -66 3 -30 9
-80 12 -111 3 -32 9 -67 14 -78 5 -11 11 -38 14 -60 6 -51 29 -141 39 -151 4
-4 7 -18 7 -31 0 -12 4 -23 9 -23 5 0 11 -10 13 -22 3 -22 8 -23 101 -26 l97
-3 0 -359 0 -359 35 -36 c20 -19 47 -38 60 -41 14 -3 25 -10 25 -15 0 -5 11
-9 24 -9 13 0 26 -3 28 -7 2 -5 37 -16 78 -27 41 -10 102 -27 135 -38 48 -15
107 -21 290 -28 445 -18 984 -8 1050 20 17 7 54 23 83 36 29 13 57 24 62 24 6
0 10 5 10 10 0 6 4 10 10 10 21 0 89 57 114 97 26 40 26 43 15 110 -11 67 -26
242 -35 418 -5 87 -4 92 20 116 14 14 42 34 63 44 21 10 46 22 55 26 10 5 24
9 32 9 8 0 16 16 19 42 17 113 30 156 81 261 30 63 58 134 62 158 3 24 10 58
15 76 10 31 -1 67 -25 85 -5 3 -30 -16 -56 -43 -26 -27 -50 -49 -54 -49 -3 0
-6 10 -6 23 0 41 156 177 204 177 8 0 17 7 20 16 9 25 6 174 -5 224 -6 25 -14
63 -19 85 -5 22 -14 67 -20 100 -6 33 -16 76 -22 96 -6 21 -8 70 -4 115 3 44
7 88 7 99 2 35 -13 105 -22 105 -5 0 -9 10 -9 23 0 13 -7 32 -15 43 -8 10 -15
27 -15 37 0 9 -4 17 -10 17 -5 0 -10 4 -10 10 0 13 -49 118 -77 162 -13 21
-23 44 -23 53 0 8 -4 15 -8 15 -4 0 -14 17 -21 38 -8 20 -21 55 -31 77 -10 22
-28 65 -41 95 -13 30 -25 57 -28 60 -4 3 -14 23 -24 45 -51 111 -231 337 -318
400 -8 6 -31 22 -51 38 -20 15 -41 27 -47 27 -6 0 -11 3 -11 8 0 8 -6 11 -107
60 -89 44 -101 48 -148 63 -22 6 -51 16 -64 21 -22 8 -94 14 -256 21 -38 2
-115 0 -170 -3z m977 -841 c9 -5 26 -9 37 -9 12 0 21 -4 21 -10 0 -5 8 -10 18
-10 9 0 30 -7 46 -15 15 -8 35 -15 42 -15 8 0 14 -3 14 -7 0 -5 18 -17 40 -27
22 -11 40 -23 40 -28 0 -4 6 -8 14 -8 18 0 92 -83 112 -126 12 -25 14 -61 11
-175 -6 -221 -30 -297 -105 -336 -28 -15 -68 -17 -76 -4 -3 5 -23 11 -43 14
-41 6 -138 30 -163 40 -8 3 -28 8 -45 11 -16 2 -57 12 -90 21 -33 10 -75 19
-93 22 -18 3 -35 9 -38 14 -3 5 -15 9 -28 9 -62 0 -181 53 -228 101 -43 44
-56 93 -39 149 6 20 11 51 11 68 0 17 5 34 10 37 6 3 10 14 10 24 0 44 75 172
124 213 31 26 97 57 131 62 45 6 248 -5 267 -15z m-1312 -51 c50 -19 80 -53
122 -138 59 -120 67 -146 74 -239 6 -82 5 -89 -15 -108 -26 -24 -183 -103
-205 -103 -8 0 -18 -4 -21 -10 -3 -5 -17 -10 -30 -10 -13 0 -26 -4 -29 -9 -4
-5 -24 -12 -46 -16 -22 -4 -42 -11 -46 -16 -3 -5 -21 -9 -40 -9 -19 0 -34 -4
-34 -8 0 -9 -81 -29 -155 -39 -22 -3 -44 -9 -50 -14 -14 -14 -174 -11 -189 4
-40 41 -66 172 -60 312 3 69 39 205 55 205 4 0 10 8 13 18 3 9 30 33 58 52 29
19 55 37 58 40 6 6 117 60 145 71 22 8 94 26 135 33 47 9 225 -2 260 -16z
m583 -320 c27 -28 65 -76 85 -107 21 -31 39 -58 42 -61 12 -12 60 -117 60
-132 0 -9 4 -19 9 -22 24 -15 38 -238 20 -305 -20 -73 -65 -132 -114 -151 -43
-16 -68 3 -137 102 -18 27 -40 48 -48 48 -8 0 -26 -16 -39 -36 -13 -19 -37
-49 -53 -67 -15 -18 -28 -35 -28 -39 0 -4 -9 -9 -20 -13 -26 -8 -75 19 -125
69 -56 58 -73 130 -55 237 7 41 17 78 22 83 4 6 8 18 8 28 0 23 92 215 137
286 18 29 33 55 33 59 0 10 60 64 83 73 37 15 69 1 120 -52z m1007 -975 c0
-10 -10 -43 -21 -73 -12 -30 -26 -71 -31 -90 -13 -51 -38 -151 -44 -180 -3
-14 -9 -34 -14 -45 -4 -11 -16 -47 -26 -80 -10 -33 -22 -64 -26 -69 -4 -6 -8
-20 -8 -32 0 -13 -4 -25 -9 -29 -5 -3 -12 -19 -16 -35 -4 -17 -11 -30 -16 -30
-5 0 -9 -6 -9 -14 0 -8 -3 -16 -7 -18 -12 -5 -43 -76 -43 -98 0 -11 -4 -20
-10 -20 -5 0 -10 -15 -10 -34 0 -19 -4 -37 -9 -40 -4 -3 -11 -18 -14 -33 -13
-59 -80 -104 -113 -74 -5 4 -31 17 -59 27 -27 10 -52 21 -55 24 -3 3 -27 13
-55 22 -49 15 -50 16 -53 58 -2 23 2 48 7 53 6 6 11 23 11 38 0 15 5 31 10 34
6 3 10 14 10 24 0 9 7 26 16 37 14 18 15 17 10 -16 -2 -19 -12 -65 -21 -103
-14 -54 -15 -70 -5 -82 17 -20 49 -19 56 3 3 9 10 25 15 34 5 10 9 27 9 38 0
11 3 20 8 20 4 0 16 28 26 61 23 73 17 88 -40 106 -66 22 -74 25 -74 33 0 9
-46 30 -67 30 -9 0 -24 -10 -34 -22 -25 -28 -27 -182 -2 -257 9 -28 13 -54 10
-57 -3 -3 -140 -10 -304 -14 -166 -5 -311 -13 -326 -19 -16 -6 -48 -11 -73
-11 -24 0 -44 -4 -44 -10 0 -5 -14 -10 -30 -10 -17 0 -47 -7 -67 -15 -87 -36
-219 -10 -323 65 -42 30 -78 69 -86 93 -3 9 -9 17 -13 17 -20 0 -46 121 -61
280 -15 167 -29 283 -40 340 -7 31 -10 68 -8 83 l3 29 56 -54 c59 -57 89 -98
89 -123 0 -8 3 -15 8 -15 8 0 21 -27 47 -100 32 -85 36 -90 59 -78 11 6 27 17
34 25 7 7 19 13 26 13 6 0 18 9 26 20 8 11 20 20 27 20 7 0 13 4 13 8 0 8 14
16 63 40 4 2 7 -3 7 -12 0 -9 -3 -16 -8 -16 -4 0 -16 -17 -26 -37 -10 -21 -22
-46 -27 -55 -23 -45 -3 -148 29 -148 6 0 12 -6 14 -12 4 -10 8 -9 20 2 10 10
17 47 22 110 6 91 19 153 44 213 l12 27 104 0 c59 0 108 4 111 10 3 6 14 10
23 10 9 0 41 17 70 37 49 33 56 35 75 23 51 -32 74 -39 110 -33 20 3 37 10 37
14 0 5 8 9 18 9 22 0 72 -22 72 -32 0 -12 58 -10 65 2 10 16 75 12 93 -6 12
-13 29 -15 74 -11 38 3 63 1 71 -7 15 -15 69 -40 122 -56 22 -7 51 -16 65 -21
82 -27 140 -18 140 21 0 11 5 20 10 20 6 0 10 7 10 16 0 29 38 99 73 134 39
40 57 53 107 78 19 9 37 20 40 23 5 6 30 17 43 18 4 1 7 -7 7 -16z"/>
<path d="M1822 1430 c-6 -11 -12 -29 -12 -40 0 -11 -4 -28 -9 -38 -5 -9 -17
-47 -26 -85 -19 -74 -35 -96 -35 -47 0 40 -28 137 -41 146 -14 8 -59 -35 -59
-57 0 -10 -4 -21 -10 -24 -5 -3 -10 -16 -10 -29 0 -23 -17 -46 -34 -46 -15 0
-36 48 -36 81 0 15 -5 40 -10 55 l-11 28 -22 -25 c-34 -38 -57 -87 -57 -120 0
-16 -5 -29 -11 -29 -11 0 -8 -59 6 -127 6 -28 12 -33 37 -33 33 0 46 10 74 60
27 49 38 54 44 22 4 -21 12 -28 34 -30 16 -2 39 1 50 7 12 5 41 12 66 15 72 7
164 26 173 36 19 18 -8 184 -42 253 -25 51 -39 58 -59 27z"/>
<path d="M2030 1416 c0 -9 -4 -16 -9 -16 -12 0 -19 -55 -25 -178 -4 -92 -3
-93 21 -103 13 -5 49 -9 79 -9 l54 0 0 43 c0 24 -3 47 -7 51 -7 6 -22 63 -40
149 -3 15 -9 27 -13 27 -5 0 -10 10 -12 23 -4 26 -48 38 -48 13z"/>
<path d="M2193 1396 c-24 -21 -28 -32 -27 -73 1 -97 40 -164 96 -166 32 -2 33
0 36 38 4 62 11 85 27 85 12 0 15 -14 15 -63 l0 -63 48 -22 c27 -12 54 -22 60
-22 15 0 17 136 2 145 -5 3 -10 13 -10 21 0 8 -16 40 -36 71 l-36 57 -29 -33
c-21 -24 -33 -31 -49 -26 -11 3 -20 13 -20 21 0 8 -4 14 -9 14 -5 0 -13 9 -16
20 -8 26 -18 25 -52 -4z"/>
<path d="M2016 1044 c-9 -23 -7 -70 5 -141 9 -51 15 -63 30 -63 10 0 19 5 19
11 0 11 14 46 52 129 25 55 35 37 18 -34 -6 -28 -10 -78 -8 -111 4 -73 20 -78
59 -20 29 43 36 70 45 178 l6 67 -110 0 c-91 0 -111 -3 -116 -16z"/>
<path d="M1710 1039 c-84 -11 -138 -25 -155 -39 -12 -10 -14 -28 -9 -94 4 -44
10 -85 15 -91 5 -5 9 -21 9 -35 0 -34 17 -50 52 -50 42 0 48 24 42 152 -6 122
-5 122 39 18 8 -19 21 -50 28 -67 9 -23 21 -33 35 -33 20 0 22 6 26 101 6 111
1 150 -16 148 -6 -1 -36 -5 -66 -10z"/>
<path d="M1844 1036 c-3 -9 -3 -37 0 -63 3 -27 9 -76 12 -111 8 -83 23 -79 62
18 6 14 13 43 17 65 3 22 8 47 10 55 7 25 -8 37 -52 45 -34 5 -44 4 -49 -9z"/>
<path d="M1441 952 c-13 -38 -10 -153 4 -219 6 -26 12 -33 31 -33 14 0 24 6
24 14 0 8 6 16 13 19 15 5 16 195 0 205 -6 4 -13 17 -17 30 -12 36 -41 27 -55
-16z"/>
<path d="M1263 934 c-7 -19 13 -135 30 -176 7 -15 17 -30 24 -33 10 -3 13 17
13 85 0 70 3 90 14 90 20 0 26 -23 26 -100 0 -71 6 -100 21 -100 15 0 10 212
-5 233 -18 24 -114 25 -123 1z"/>
<path d="M2626 868 c-23 -53 -46 -138 -46 -168 0 -24 3 -27 23 -22 28 7 37 17
70 73 28 47 34 83 17 94 -5 3 -10 14 -10 25 0 15 -18 30 -36 30 -2 0 -11 -15
-18 -32z"/>
</g>
</svg>
